<?xml version="1.0" encoding="UTF-8" standalone="no"?>
<!-- Created with Inkscape (http://www.inkscape.org/) -->

<svg
   width="210mm"
   height="297mm"
   viewBox="0 0 210 297"
   version="1.1"
   id="svg1"
   xml:space="preserve"
   inkscape:version="1.3 (0e150ed6c4, 2023-07-21)"
   sodipodi:docname="logo.svg"
   xmlns:inkscape="http://www.inkscape.org/namespaces/inkscape"
   xmlns:sodipodi="http://sodipodi.sourceforge.net/DTD/sodipodi-0.dtd"
   xmlns="http://www.w3.org/2000/svg"
   xmlns:svg="http://www.w3.org/2000/svg"><sodipodi:namedview
     id="namedview1"
     pagecolor="#ffffff"
     bordercolor="#666666"
     borderopacity="1.0"
     inkscape:showpageshadow="2"
     inkscape:pageopacity="0.0"
     inkscape:pagecheckerboard="0"
     inkscape:deskcolor="#d1d1d1"
     inkscape:document-units="px"
     inkscape:zoom="3.5135241"
     inkscape:cx="45.538324"
     inkscape:cy="53.080609"
     inkscape:window-width="1366"
     inkscape:window-height="699"
     inkscape:window-x="0"
     inkscape:window-y="32"
     inkscape:window-maximized="1"
     inkscape:current-layer="layer1"
     showgrid="false" /><defs
     id="defs1" /><g
     inkscape:label="Layer 1"
     inkscape:groupmode="layer"
     id="layer1"><path
       id="circle9"
       style="fill:#ffffff;stroke-width:0.26364;stroke-linecap:round;stroke-linejoin:round;paint-order:stroke fill markers"
       d="M 25.4,12.7 A 12.7,12.7 0 0 1 12.7,25.4 12.7,12.7 0 0 1 0,12.7 12.7,12.7 0 0 1 12.7,0 12.7,12.7 0 0 1 25.4,12.7 Z" /><path
       id="path6"
       style="fill:#003380;stroke:none;stroke-width:0.26364;stroke-linecap:round;stroke-linejoin:round;paint-order:stroke fill markers"
       d="M 12.7 0 A 12.7 12.7 0 0 0 4.3733765 3.1119548 L 4.3733765 4.420402 L 4.4627767 4.420402 C 4.6216213 3.9703428 4.8864054 3.6179164 5.2570435 3.3631022 C 5.6309901 3.1049795 6.0747761 2.9760457 6.5877116 2.9760457 C 7.1105757 2.9760457 7.5551837 3.1063232 7.9225139 3.3677531 C 8.2898412 3.6258757 8.5343955 3.9769594 8.656836 4.420402 L 8.7369344 4.420402 C 8.8924683 3.9835795 9.1732637 3.6348701 9.5802938 3.3734375 C 9.990644 3.1086965 10.47572 2.9760457 11.034985 2.9760457 C 11.746478 2.9760457 12.323733 3.2027389 12.767179 3.6561076 C 13.213933 4.1061682 13.437423 4.7444358 13.437423 5.5717529 L 13.437423 6.8135376 L 13.437423 10.699605 L 13.526823 10.699605 C 13.702213 10.249547 13.980313 9.8976363 14.360881 9.6428223 C 14.744755 9.3846932 15.226116 9.2557658 15.805237 9.2557658 C 16.599457 9.2557658 17.23773 9.5104306 17.720882 10.02006 C 18.204036 10.529683 18.444652 11.230824 18.441252 12.124325 L 18.441252 14.74432 C 18.844894 14.619203 19.300159 14.556734 19.806543 14.556734 C 20.372428 14.556734 20.901481 14.646236 21.39456 14.824935 C 21.887641 15.003638 22.285076 15.283596 22.586218 15.66416 C 22.890674 16.041415 23.043038 16.532376 23.043038 17.137972 L 23.043038 20.021517 A 12.7 12.7 0 0 0 25.4 12.7 A 12.7 12.7 0 0 0 12.7 0 z M 5.7138631 4.718575 C 5.3630807 4.718575 5.0684633 4.8475151 4.8301961 5.1056315 C 4.5919296 5.3604453 4.4725952 5.6995554 4.4725952 6.1231405 L 4.4725952 10.699605 L 2.3579956 10.699605 L 2.3579956 5.3769328 A 12.7 12.7 0 0 0 0 12.7 A 12.7 12.7 0 0 0 12.7 25.4 A 12.7 12.7 0 0 0 21.036959 22.27771 L 21.036959 21.222994 L 20.977531 21.222994 C 20.792212 21.57709 20.514111 21.867162 20.143473 22.092192 C 19.776143 22.313919 19.311819 22.424471 18.749243 22.424471 C 18.021204 22.424471 17.416796 22.234529 16.936951 21.853963 C 16.45711 21.473398 16.217615 20.905221 16.217615 20.150708 C 16.217615 19.581514 16.351606 19.135564 16.619657 18.811255 C 16.887708 18.486948 17.238276 18.250138 17.67179 18.101221 C 18.108612 17.948994 18.578511 17.849388 19.081523 17.803048 C 19.743372 17.736859 20.216479 17.667592 20.501074 17.594792 C 20.785673 17.521987 20.927922 17.363222 20.927922 17.118335 L 20.927922 17.088363 C 20.927922 16.77398 20.828823 16.530773 20.630265 16.358691 C 20.435021 16.186599 20.156918 16.100826 19.796208 16.100826 C 19.415642 16.100826 19.112766 16.183928 18.887736 16.34939 C 18.662702 16.514852 18.514042 16.724512 18.441252 16.979325 L 16.326652 16.979325 L 16.326652 12.501563 C 16.329955 12.031645 16.210658 11.66642 15.969051 11.404989 C 15.730785 11.143551 15.396731 11.012248 14.966528 11.012248 C 14.536324 11.012248 14.183895 11.149955 13.909229 11.424626 C 13.637866 11.695984 13.500251 12.078246 13.496851 12.571326 L 13.496851 16.979325 L 11.327991 16.979325 L 11.327991 10.699605 L 11.327991 6.8135376 L 11.327991 5.9887818 C 11.327991 5.5651948 11.215572 5.2476607 10.990544 5.0358683 C 10.765515 4.8240741 10.483695 4.718575 10.146151 4.718575 C 9.7622745 4.718575 9.4631163 4.8411037 9.2480143 5.0859945 C 9.0329101 5.3308788 8.9250366 5.6497554 8.9250366 6.0435588 L 8.9250366 13.839465 L 6.8750326 13.839465 L 6.8750326 5.94434 C 6.8750326 5.5703925 6.7676753 5.2730903 6.5525716 5.0513713 C 6.340779 4.8296517 6.0613363 4.718575 5.7138631 4.718575 z M 20.942908 18.746143 C 20.860174 18.802396 20.731239 18.851951 20.555851 18.894971 C 20.383768 18.937992 20.197852 18.976602 19.999296 19.009692 C 19.804049 19.039462 19.629282 19.065607 19.473747 19.088757 C 19.103109 19.141703 18.803433 19.245861 18.575094 19.4014 C 18.350066 19.556935 18.237647 19.784145 18.237647 20.081978 C 18.237647 20.373193 18.341804 20.592971 18.550289 20.741886 C 18.762081 20.890808 19.030064 20.965129 19.354374 20.965129 C 19.81767 20.965129 20.19859 20.831135 20.496423 20.563086 C 20.794257 20.291728 20.942908 19.956334 20.942908 19.555912 L 20.942908 18.746143 z " /></g><style
     id="style1">&#10;        path { fill: #000; }&#10;        @media (prefers-color-scheme: dark) {&#10;            path { fill: #FFF; }&#10;        }&#10;    </style></svg>
