<?xml version="1.0" encoding="UTF-8" standalone="no"?>
<!-- Created with Inkscape (http://www.inkscape.org/) -->

<svg
   width="25.4mm"
   height="25.4mm"
   viewBox="0 0 25.4 25.4"
   version="1.1"
   id="svg1"
   xml:space="preserve"
   inkscape:version="1.3 (0e150ed6c4, 2023-07-21)"
   sodipodi:docname="favicon.svg"
   xmlns:inkscape="http://www.inkscape.org/namespaces/inkscape"
   xmlns:sodipodi="http://sodipodi.sourceforge.net/DTD/sodipodi-0.dtd"
   xmlns="http://www.w3.org/2000/svg"
   xmlns:svg="http://www.w3.org/2000/svg"><sodipodi:namedview
     id="namedview1"
     pagecolor="#ffffff"
     bordercolor="#666666"
     borderopacity="1.0"
     inkscape:showpageshadow="false"
     inkscape:pageopacity="0.0"
     inkscape:pagecheckerboard="0"
     inkscape:deskcolor="#d1d1d1"
     inkscape:document-units="px"
     inkscape:zoom="3.5135241"
     inkscape:cx="45.396017"
     inkscape:cy="53.080609"
     inkscape:window-width="1366"
     inkscape:window-height="699"
     inkscape:window-x="0"
     inkscape:window-y="32"
     inkscape:window-maximized="1"
     inkscape:current-layer="layer1"
     labelstyle="default"
     showborder="false"
     borderlayer="false" /><defs
     id="defs1" /><g
     inkscape:label="Layer 1"
     inkscape:groupmode="layer"
     id="layer1"><path
       id="circle9"
       style="fill:#d5e5ff;stroke-width:0.26364;stroke-linecap:round;stroke-linejoin:round;paint-order:stroke fill markers"
       d="M 25.4,12.7 A 12.7,12.7 0 0 1 12.7,25.4 12.7,12.7 0 0 1 0,12.7 12.7,12.7 0 0 1 12.7,0 12.7,12.7 0 0 1 25.4,12.7 Z" /><path
       id="path6"
       style="fill:#003380;stroke:none;stroke-width:0.26364;stroke-linecap:round;stroke-linejoin:round;paint-order:stroke fill markers"
       d="M 12.7,0 A 12.7,12.7 0 0 0 4.3733765,3.1119548 V 4.420402 h 0.0894 C 4.6216213,3.9703428 4.8864054,3.6179164 5.2570435,3.3631022 5.6309901,3.1049795 6.0747761,2.9760457 6.5877116,2.9760457 c 0.5228641,0 0.9674721,0.1302775 1.3348023,0.3917074 C 8.2898412,3.6258757 8.5343955,3.9769594 8.656836,4.420402 H 8.736934 C 8.8924683,3.9835795 9.1732637,3.6348701 9.5802938,3.3734375 9.990644,3.1086965 10.47572,2.9760457 11.034985,2.9760457 c 0.711493,0 1.288748,0.2266932 1.732194,0.6800619 0.446754,0.4500606 0.670244,1.0883282 0.670244,1.9156453 v 1.2417847 3.8860674 h 0.0894 c 0.17539,-0.450058 0.45349,-0.8019687 0.834058,-1.0567827 0.383874,-0.2581291 0.865235,-0.3870565 1.444356,-0.3870565 0.79422,0 1.432493,0.2546648 1.915645,0.7642942 0.483154,0.509623 0.72377,1.210764 0.72037,2.104265 v 2.619995 c 0.403642,-0.125117 0.858907,-0.187586 1.365291,-0.187586 0.565885,0 1.094938,0.0895 1.588017,0.268201 0.493081,0.178703 0.890516,0.458661 1.191658,0.839225 0.304456,0.377255 0.45682,0.868216 0.45682,1.473812 v 2.883545 A 12.7,12.7 0 0 0 25.4,12.7 12.7,12.7 0 0 0 12.7,0 Z M 5.7138631,4.718575 c -0.3507824,0 -0.6453998,0.1289401 -0.883667,0.3870565 C 4.5919296,5.3604453 4.4725952,5.6995554 4.4725952,6.1231405 V 10.699605 H 2.3579956 V 5.3769328 A 12.7,12.7 0 0 0 0,12.7 12.7,12.7 0 0 0 12.7,25.4 12.7,12.7 0 0 0 21.036959,22.27771 v -1.054716 h -0.05943 c -0.185319,0.354096 -0.46342,0.644168 -0.834058,0.869198 -0.36733,0.221727 -0.831654,0.332279 -1.39423,0.332279 -0.728039,0 -1.332447,-0.189942 -1.812292,-0.570508 -0.479841,-0.380565 -0.719336,-0.948742 -0.719336,-1.703255 0,-0.569194 0.133991,-1.015144 0.402042,-1.339453 0.268051,-0.324307 0.618619,-0.561117 1.052133,-0.710034 0.436822,-0.152227 0.906721,-0.251833 1.409733,-0.298173 0.661849,-0.06619 1.134956,-0.135456 1.419551,-0.208256 0.284599,-0.07281 0.426848,-0.23157 0.426848,-0.476457 v -0.02997 c 0,-0.314383 -0.0991,-0.55759 -0.297657,-0.729672 -0.195244,-0.172092 -0.473347,-0.257865 -0.834057,-0.257865 -0.380566,0 -0.683442,0.0831 -0.908472,0.248564 -0.225034,0.165462 -0.373694,0.375122 -0.446484,0.629935 h -2.1146 v -4.477762 c 0.0033,-0.469918 -0.115994,-0.835143 -0.357601,-1.096574 -0.238266,-0.261438 -0.57232,-0.392741 -1.002523,-0.392741 -0.430204,0 -0.782633,0.137707 -1.057299,0.412378 -0.271363,0.271358 -0.408978,0.65362 -0.412378,1.1467 v 4.407999 h -2.16886 V 10.699605 6.8135376 5.9887818 c 0,-0.423587 -0.112419,-0.7411211 -0.337447,-0.9529135 C 10.765515,4.8240741 10.483695,4.718575 10.146151,4.718575 9.7622745,4.718575 9.4631163,4.8411037 9.2480143,5.0859945 9.0329101,5.3308788 8.9250366,5.6497554 8.9250366,6.0435588 V 13.839465 H 6.8750326 V 5.94434 c 0,-0.3739475 -0.1073573,-0.6712497 -0.322461,-0.8929687 C 6.340779,4.8296517 6.0613363,4.718575 5.7138631,4.718575 Z M 20.942908,18.746143 c -0.08273,0.05625 -0.211669,0.105808 -0.387057,0.148828 -0.172083,0.04302 -0.357999,0.08163 -0.556555,0.114721 -0.195247,0.02977 -0.370014,0.05591 -0.525549,0.07906 -0.370638,0.05295 -0.670314,0.157104 -0.898653,0.312643 -0.225028,0.155535 -0.337447,0.382745 -0.337447,0.680578 0,0.291215 0.104157,0.510993 0.312642,0.659908 0.211792,0.148922 0.479775,0.223243 0.804085,0.223243 0.463296,0 0.844216,-0.133994 1.142049,-0.402043 0.297834,-0.271358 0.446485,-0.606752 0.446485,-1.007174 z" /></g><style
     id="style1">&#10;        path { fill: #000; }&#10;        @media (prefers-color-scheme: dark) {&#10;            path { fill: #FFF; }&#10;        }&#10;    </style></svg>
